<svg xmlns="http://www.w3.org/2000/svg" xmlns:xlink="http://www.w3.org/1999/xlink" width="25" height="24" viewBox="0 0 25 24">
    <defs>
        <path id="a" d="M0 23.99h23.99V0H0z"/>
    </defs>
    <g fill="none" fill-rule="evenodd" transform="translate(.538)">
        <mask id="b" fill="#fff">
            <use xlink:href="#a"/>
        </mask>
        <path fill="#FFF" d="M22.666 0H1.324C.593 0 0 .593 0 1.324v21.342c0 .732.593 1.325 1.324 1.325h11.49V14.7H9.688v-3.622h3.126V8.41c0-3.098 1.893-4.786 4.657-4.786 1.324 0 2.462.099 2.794.143v3.238l-1.918.001c-1.503 0-1.794.715-1.794 1.763v2.311h3.585l-.466 3.621h-3.119v9.29h6.113c.732 0 1.324-.592 1.324-1.324V1.324C23.99.593 23.398 0 22.666 0" mask="url(#b)"/>
    </g>
</svg>
