<svg xmlns="http://www.w3.org/2000/svg" width="36" height="23" viewBox="0 0 36 23">
    <g fill="#EBCB80" fill-rule="evenodd">
        <path d="M11.22 9.806v3.922h6.364c-.257 1.683-1.924 4.936-6.364 4.936-3.83 0-6.956-3.236-6.956-7.224s3.125-7.224 6.956-7.224c2.18 0 3.639.948 4.472 1.765l3.046-2.99C16.782 1.128 14.25 0 11.22 0 5.017 0 0 5.115 0 11.44c0 6.325 5.017 11.44 11.22 11.44 6.476 0 10.772-4.641 10.772-11.179 0-.751-.08-1.323-.177-1.895H11.22zM35.264 9.806h-3.206V6.537h-3.206v3.269h-3.206v3.268h3.206v3.269h3.206v-3.269h3.206"/>
    </g>
</svg>
