<svg xmlns="http://www.w3.org/2000/svg" width="36" height="23" viewBox="0 0 36 23">
    <g fill="#7D7D7D" fill-rule="evenodd">
        <path d="M11.22 9.835v3.932h6.364c-.257 1.688-1.924 4.95-6.364 4.95-3.83 0-6.956-3.245-6.956-7.244 0-3.998 3.125-7.243 6.956-7.243 2.18 0 3.639.95 4.472 1.77l3.046-2.999C16.782 1.133 14.25.003 11.22.003 5.017.003 0 5.132 0 11.473c0 6.342 5.017 11.471 11.22 11.471 6.476 0 10.772-4.654 10.772-11.208 0-.754-.08-1.328-.177-1.901H11.22zM35.264 9.835h-3.206V6.557h-3.206v3.278h-3.206v3.277h3.206v3.277h3.206v-3.277h3.206"/>
    </g>
</svg>
