<svg xmlns="http://www.w3.org/2000/svg" xmlns:xlink="http://www.w3.org/1999/xlink" width="24" height="24" viewBox="0 0 24 24">
    <defs>
        <path id="a" d="M0 23.995h24V0H0z"/>
    </defs>
    <g fill="none" fill-rule="evenodd">
        <mask id="b" fill="#fff">
            <use xlink:href="#a"/>
        </mask>
        <path fill="#FFF" d="M21.333 6.667a.667.667 0 0 1-.666.666h-3.334a.667.667 0 0 1-.666-.666V3.333c0-.368.298-.666.666-.666h3.334c.368 0 .666.298.666.666v3.334zm0 14a.667.667 0 0 1-.666.666H3.333a.667.667 0 0 1-.666-.666V10h2.276a7.333 7.333 0 1 0 14.114 0h2.276v10.667zM12 7.333a4.667 4.667 0 1 1 0 9.334 4.667 4.667 0 0 1 0-9.334zM20.667 0H3.333A3.333 3.333 0 0 0 0 3.333v17.334A3.333 3.333 0 0 0 3.333 24h17.334A3.333 3.333 0 0 0 24 20.667V3.333A3.333 3.333 0 0 0 20.667 0z" mask="url(#b)"/>
    </g>
</svg>
