<svg xmlns="http://www.w3.org/2000/svg" xmlns:xlink="http://www.w3.org/1999/xlink" width="25" height="24" viewBox="0 0 25 24">
    <defs>
        <path id="a" d="M.046 23.96h24.692V0H.046z"/>
    </defs>
    <g fill="none" fill-rule="evenodd">
        <mask id="b" fill="#fff">
            <use xlink:href="#a"/>
        </mask>
        <path fill="#EBCB80" d="M21.088 20.45h-3.661v-5.57c0-1.327-.024-3.036-1.904-3.036-1.905 0-2.196 1.447-2.196 2.942v5.665H9.669V8.997h3.51v1.566h.05c.489-.9 1.684-1.85 3.466-1.85 3.708 0 4.393 2.372 4.393 5.456v6.282zM5.538 7.434c-1.176 0-2.123-.925-2.123-2.065s.947-2.064 2.124-2.064c1.171 0 2.123.925 2.123 2.064 0 1.14-.952 2.065-2.123 2.065zM3.706 20.45h3.666V8.997H3.705v11.454zM22.912 0H1.868C.863 0 .046.775.046 1.73v20.538C.046 23.224.863 24 1.868 24h21.044c1.008 0 1.826-.776 1.826-1.732V1.731C24.738.775 23.92 0 22.912 0z" mask="url(#b)"/>
    </g>
</svg>
