<svg xmlns="http://www.w3.org/2000/svg" xmlns:xlink="http://www.w3.org/1999/xlink" width="20" height="19" viewBox="0 0 20 19">
    <defs>
        <path id="a" d="M.034 17.888h18.453V0H.034z"/>
    </defs>
    <g fill="none" fill-rule="evenodd" transform="translate(.641 .155)">
        <mask id="b" fill="#fff">
            <use xlink:href="#a"/>
        </mask>
        <path fill="#EBCB80" d="M15.759 15.268h-2.736V11.11c0-.992-.018-2.267-1.423-2.267-1.424 0-1.64 1.08-1.64 2.196v4.23H7.224V6.716H9.85v1.17h.037c.365-.673 1.259-1.382 2.59-1.382 2.77 0 3.283 1.77 3.283 4.074v4.69zM4.139 5.55c-.879 0-1.587-.69-1.587-1.541 0-.85.708-1.541 1.587-1.541.876 0 1.587.69 1.587 1.54 0 .852-.711 1.542-1.587 1.542zm-1.37 9.72h2.74V6.716h-2.74v8.551zM17.122 0H1.396C.645 0 .034.578.034 1.292v15.333c0 .714.61 1.293 1.362 1.293h15.726c.753 0 1.365-.58 1.365-1.293V1.292C18.487.578 17.875 0 17.122 0z" mask="url(#b)"/>
    </g>
</svg>
