<svg xmlns="http://www.w3.org/2000/svg" xmlns:xlink="http://www.w3.org/1999/xlink" width="25" height="25" viewBox="0 0 25 25">
    <defs>
        <path id="a" d="M.046 24.024h24.692V0H.046z"/>
    </defs>
    <g fill="none" fill-rule="evenodd" transform="translate(0 .003)">
        <mask id="b" fill="#fff">
            <use xlink:href="#a"/>
        </mask>
        <path fill="#7D7D7D" d="M21.088 20.505h-3.661v-5.584c0-1.332-.024-3.045-1.904-3.045-1.905 0-2.196 1.451-2.196 2.95v5.68H9.669V9.02h3.51v1.57h.05c.489-.902 1.684-1.854 3.466-1.854 3.708 0 4.393 2.377 4.393 5.47v6.298zM5.538 7.453c-1.176 0-2.123-.928-2.123-2.07 0-1.143.947-2.07 2.124-2.07 1.171 0 2.123.927 2.123 2.07 0 1.142-.952 2.07-2.123 2.07zM3.706 20.505h3.666V9.021H3.705v11.484zM22.912 0H1.868C.863 0 .046.777.046 1.735v20.593c0 .958.817 1.736 1.822 1.736h21.044c1.008 0 1.826-.778 1.826-1.736V1.735C24.738.777 23.92 0 22.912 0z" mask="url(#b)"/>
    </g>
</svg>
