<svg xmlns="http://www.w3.org/2000/svg" width="12" height="17" viewBox="0 0 12 17">
    <path fill="#4B4B4B" fill-rule="evenodd" d="M11.906 14.98a.802.802 0 0 1-.331 1.085l-1.075.572a3.158 3.158 0 0 1-1.97.332l-.76-.119A3.18 3.18 0 0 1 5.45 15.2L.371 5.648A3.166 3.166 0 0 1 .3 2.817l.33-.704A3.158 3.158 0 0 1 2.006.665L3.081.094a.802.802 0 0 1 1.084.331L5.316 2.59a1.185 1.185 0 0 1-.49 1.602l-.537.286a1.62 1.62 0 0 0-.67 2.19l2.822 5.306a1.587 1.587 0 0 0 2.146.656l.577-.307a1.172 1.172 0 0 1 1.586.484l1.156 2.175z"/>
</svg>
