<svg xmlns="http://www.w3.org/2000/svg" width="25" height="25" viewBox="0 0 25 25">
    <path fill="#EBCB80" fill-rule="evenodd" d="M.297 12.314c0 5.084 3.163 9.426 7.628 11.174-.106-.949-.2-2.406.04-3.441.22-.937 1.408-5.966 1.408-5.966s-.359-.719-.359-1.78c0-1.67.967-2.915 2.171-2.915 1.024 0 1.519.768 1.519 1.69 0 1.03-.656 2.569-.994 3.996-.283 1.194.599 2.168 1.777 2.168 2.132 0 3.772-2.25 3.772-5.495 0-2.873-2.064-4.883-5.012-4.883-3.415 0-5.419 2.561-5.419 5.209 0 1.03.398 2.137.894 2.738a.359.359 0 0 1 .083.344c-.092.38-.294 1.194-.334 1.36-.052.22-.174.267-.401.162-1.499-.698-2.436-2.89-2.436-4.65 0-3.785 2.75-7.26 7.93-7.26 4.161 0 7.397 2.966 7.397 6.93 0 4.135-2.608 7.464-6.227 7.464-1.216 0-2.359-.632-2.75-1.379 0 0-.602 2.292-.748 2.853-.271 1.042-1.003 2.35-1.492 3.146 1.123.347 2.316.535 3.554.535 6.626 0 12-5.373 12-12s-5.374-12-12-12c-6.628 0-12 5.373-12 12z"/>
</svg>
