<svg xmlns="http://www.w3.org/2000/svg" width="25" height="25" viewBox="0 0 25 25">
    <path fill="#7D7D7D" fill-rule="evenodd" d="M12.298.315c-6.628 0-12 5.387-12 12.032 0 5.098 3.162 9.451 7.627 11.204-.106-.951-.2-2.412.04-3.45.22-.94 1.408-5.982 1.408-5.982s-.359-.72-.359-1.786c0-1.673.967-2.922 2.171-2.922 1.024 0 1.519.77 1.519 1.695 0 1.032-.656 2.576-.994 4.006-.283 1.197.599 2.174 1.777 2.174 2.132 0 3.772-2.255 3.772-5.51 0-2.88-2.064-4.895-5.012-4.895-3.415 0-5.419 2.568-5.419 5.222 0 1.033.398 2.143.894 2.746a.36.36 0 0 1 .083.345c-.092.38-.294 1.197-.334 1.364-.052.22-.174.267-.401.161-1.499-.7-2.436-2.897-2.436-4.661 0-3.796 2.75-7.281 7.93-7.281 4.161 0 7.397 2.974 7.397 6.949 0 4.147-2.608 7.484-6.227 7.484-1.216 0-2.359-.634-2.75-1.382 0 0-.602 2.297-.748 2.86-.271 1.046-1.003 2.356-1.492 3.155 1.123.348 2.316.536 3.554.536 6.626 0 12-5.387 12-12.032 0-6.645-5.374-12.032-12-12.032"/>
</svg>
