<svg xmlns="http://www.w3.org/2000/svg" xmlns:xlink="http://www.w3.org/1999/xlink" width="30" height="24" viewBox="0 0 30 24">
    <defs>
        <path id="a" d="M.006 23.994h29.417V.088H.006z"/>
    </defs>
    <g fill="none" fill-rule="evenodd">
        <mask id="b" fill="#fff">
            <use xlink:href="#a"/>
        </mask>
        <path fill="#FFFFFE" d="M29.423 2.92a12.07 12.07 0 0 1-3.467.95A6.055 6.055 0 0 0 28.61.53a12.09 12.09 0 0 1-3.833 1.465A6.029 6.029 0 0 0 20.371.088 6.037 6.037 0 0 0 14.49 7.5 17.138 17.138 0 0 1 2.048 1.193a6.008 6.008 0 0 0-.817 3.035 6.034 6.034 0 0 0 2.686 5.025 6.012 6.012 0 0 1-2.735-.755v.075a6.04 6.04 0 0 0 4.842 5.92 6.045 6.045 0 0 1-2.726.103 6.042 6.042 0 0 0 5.639 4.192 12.112 12.112 0 0 1-7.497 2.584c-.487 0-.968-.028-1.44-.084A17.086 17.086 0 0 0 9.253 24c11.104 0 17.175-9.198 17.175-17.175 0-.262-.005-.522-.017-.781a12.269 12.269 0 0 0 3.012-3.125" mask="url(#b)"/>
    </g>
</svg>
