<svg xmlns="http://www.w3.org/2000/svg" xmlns:xlink="http://www.w3.org/1999/xlink" width="23" height="19" viewBox="0 0 23 19">
    <defs>
        <path id="a" d="M.005 17.913h22.512V.066H.005z"/>
    </defs>
    <g fill="none" fill-rule="evenodd" transform="translate(.582 .155)">
        <mask id="b" fill="#fff">
            <use xlink:href="#a"/>
        </mask>
        <path fill="#EBCB80" d="M22.517 2.18c-.828.358-1.719.6-2.653.709A4.542 4.542 0 0 0 21.895.396a9.393 9.393 0 0 1-2.933 1.093A4.668 4.668 0 0 0 15.589.066c-2.55 0-4.62 2.018-4.62 4.507 0 .353.042.697.12 1.027A13.227 13.227 0 0 1 1.568.89a4.402 4.402 0 0 0-.626 2.266c0 1.563.816 2.943 2.055 3.75a4.69 4.69 0 0 1-2.092-.563v.057c0 2.183 1.592 4.005 3.705 4.419a4.735 4.735 0 0 1-2.086.077c.588 1.79 2.294 3.094 4.315 3.13a9.418 9.418 0 0 1-5.737 1.93A9.63 9.63 0 0 1 0 15.892a13.315 13.315 0 0 0 7.082 2.025c8.497 0 13.143-6.867 13.143-12.823 0-.195-.004-.39-.013-.583a9.266 9.266 0 0 0 2.305-2.333" mask="url(#b)"/>
    </g>
</svg>
