<svg xmlns="http://www.w3.org/2000/svg" xmlns:xlink="http://www.w3.org/1999/xlink" width="30" height="24" viewBox="0 0 30 24">
    <defs>
        <path id="a" d="M0 23.97h29.417V0H0z"/>
    </defs>
    <g fill="none" fill-rule="evenodd">
        <mask id="b" fill="#fff">
            <use xlink:href="#a"/>
        </mask>
        <path fill="#7D7D7D" d="M29.423 2.838a12.045 12.045 0 0 1-3.467.953A6.068 6.068 0 0 0 28.61.443a12.07 12.07 0 0 1-3.833 1.468A6.021 6.021 0 0 0 20.371 0c-3.334 0-6.037 2.71-6.037 6.053 0 .474.054.936.157 1.379C9.474 7.179 5.026 4.77 2.048 1.108a6.037 6.037 0 0 0-.817 3.043c0 2.1 1.066 3.952 2.686 5.038a6 6 0 0 1-2.735-.757v.076a6.052 6.052 0 0 0 4.842 5.935 6.03 6.03 0 0 1-2.726.103 6.045 6.045 0 0 0 5.639 4.204 12.092 12.092 0 0 1-7.497 2.59c-.487 0-.968-.028-1.44-.084a17.053 17.053 0 0 0 9.253 2.72c11.104 0 17.175-9.223 17.175-17.222a17.5 17.5 0 0 0-.017-.783 12.287 12.287 0 0 0 3.012-3.133" mask="url(#b)"/>
    </g>
</svg>
